<svg xmlns="http://www.w3.org/2000/svg" width="78" height="78" viewBox="0 0 78 78">
  <g id="Groupe_9" data-name="Groupe 9" transform="translate(-4725 -1752)">
    <g id="Ellipse_3" data-name="Ellipse 3" transform="translate(4725 1752)" fill="#fff" stroke="#707070" stroke-width="1">
      <circle cx="39" cy="39" r="39" stroke="none"/>
      <circle cx="39" cy="39" r="38.5" fill="none"/>
    </g>
    <g id="Groupe_8" data-name="Groupe 8" transform="translate(3100.011 438.836)">
      <g id="layer1" transform="translate(1638 1327.885)">
        <g id="Groupe_4" data-name="Groupe 4" transform="translate(0 0)">
          <path id="Tracé_2057" data-name="Tracé 2057" d="M117.486,194.459c-.131.106-.141.288-.073,1.157a4.754,4.754,0,0,1-1.331,3.3,59.506,59.506,0,0,1-5.468,5.889c-3.045,3-3.559,3.6-4.681,5.447a23.545,23.545,0,0,0-1.481,3.048,21.487,21.487,0,0,0-1.466,7.079,5.183,5.183,0,0,1-.063.936c-.063-.293-.16-.389-.432-.432-.087-.014-.087.01-.01-.888a38.536,38.536,0,0,0,0-4.1,37.643,37.643,0,0,0-1.457-8.14c-.918-3.033-2.069-4.938-2.977-4.938-.18,0-.359.139-.233.182a4.745,4.745,0,0,1,.8.657,15.325,15.325,0,0,1,2.583,5.538,41.485,41.485,0,0,1,1.044,6.292,36.488,36.488,0,0,1,.1,4.8c-.054.7-.073.768-.228.768a.152.152,0,0,1-.151-.086c-.291-.854-1.364-3.287-2.035-4.617-2.088-4.151-4.1-6.551-6.065-7.223a3.114,3.114,0,0,0-.733-.105,1.191,1.191,0,0,0-.656.058c-.228.115-.335.216-.335.317,0,.072.02.077.16.038a3.293,3.293,0,0,1,1.3.048c1.321.336,2.778,1.584,4.084,3.508a44.555,44.555,0,0,1,3.525,6.551c.35.806.641,1.5.641,1.536,0,.014-.039.024-.087.024-.107,0-.282.177-.311.312-.02.082-.039.063-.136-.1-.248-.408-1.01-1.5-1.282-1.847a23.34,23.34,0,0,0-2.885-2.928c-.117-.091-.272-.226-.345-.3s-.2-.163-.277-.216a2.63,2.63,0,0,1-.272-.2c-.078-.062-.189-.149-.252-.192a16.955,16.955,0,0,0-3.079-1.728,21.206,21.206,0,0,0-2.7-.922c-.646-.187-1.491-.437-1.879-.557s-1-.3-1.355-.4-.685-.206-.728-.23-.515-.2-1.049-.379a13.543,13.543,0,0,1-4.269-2,3.582,3.582,0,0,1-1.025-1.579.736.736,0,0,0-.2-.307.187.187,0,0,0-.247-.009c-.359.192-.3.706.209,1.694a8.916,8.916,0,0,0,3.822,3.926c.413.158.388.125.379.542a2.043,2.043,0,0,0,.389,1.243,3.353,3.353,0,0,0,.952.758,3.144,3.144,0,0,1,.564.427l.34.321-.034.24a1.328,1.328,0,0,0,.8,1.281,1.311,1.311,0,0,1,.709.7,1.819,1.819,0,0,1,.17.725c.092,1.051.413,1.54,1.122,1.689a.709.709,0,0,1,.3.235c.359.432.451.753.306,1.032l-.068.134.389,0c.374,0,.393,0,.49.139a4.821,4.821,0,0,0,.865.82.878.878,0,0,0,.32.082c.141,0,.219.053.423.259.291.3.539.375.772.24.189-.105.2-.1.272.1a1.374,1.374,0,0,0,1.005.787,1.273,1.273,0,0,1,.364.149.571.571,0,0,1,.214.538c-.024.1,0,.154.136.288.287.278.568.346,1.442.341a3.921,3.921,0,0,0,1.238-.135c.267-.067.5-.125.52-.125s.039.048.039.106c0,.077-.092.182-.291.341a2.866,2.866,0,0,0-.782.931,1.276,1.276,0,0,0-.127.591,1.815,1.815,0,0,1-.082.552.858.858,0,0,0,.025.739.517.517,0,0,1,.044.441,2.433,2.433,0,0,0-.054.591,1.262,1.262,0,0,0,.5,1.166,1.55,1.55,0,0,1,.365.412c.413.624.879,1.042,1.17,1.042.146,0,.214.048.5.355.369.389.539.485.811.451.17-.019.195,0,.374.221.243.3.515.447.685.37.063-.029.117-.048.117-.038s.063.168.146.36a14.249,14.249,0,0,1,.558,2.073,8.481,8.481,0,0,1-.2,3.384,3.137,3.137,0,0,1-1.364,1.867c-.267.134-.326.192-.369.37a.278.278,0,0,0,.078.259c.092.12.126.13.335.106,1.02-.12,1.734-1.411,1.938-3.489a25.5,25.5,0,0,0-.029-3.7,48.294,48.294,0,0,1,0-6.047,6.723,6.723,0,0,1,.821-1.91l.1-.159.233.47a7.9,7.9,0,0,0,.855,1.392c.073.024.112-.279.15-1.176a6.89,6.89,0,0,1,.049-.729c.029,0,.933.619,1.233.85a6.4,6.4,0,0,1,1.574,1.958c.316.533,1.209,2.294,1.675,3.288.17.355.413.873.539,1.142s.238.5.238.513.2.418.437.912.437.916.437.941a12.627,12.627,0,0,0,.723,1.325c.136.23.689,1.051.835,1.233a4.626,4.626,0,0,0,2.574,1.944c.825.115,1.409-.274,1.064-.715-.082-.11-.126-.12-.544-.135a3.393,3.393,0,0,1-2.37-1.157,8.23,8.23,0,0,1-1.068-1.271,3.2,3.2,0,0,0-.194-.312,1.787,1.787,0,0,1-.194-.331.438.438,0,0,0-.087-.158,6.834,6.834,0,0,1-.544-1.19,4.715,4.715,0,0,0-.165-.58c-.092-.279-.2-.658-.238-.84-.068-.288-.228-1.334-.228-1.464,0-.019.063-.053.146-.072.243-.053.427-.384.51-.926.024-.144.058-.2.112-.2a.726.726,0,0,0,.51-.417,2.838,2.838,0,0,0,.277-.888c0-.081.053-.154.18-.235.364-.231.569-.72.656-1.579a2.127,2.127,0,0,1,.141-.672,1.788,1.788,0,0,0-.394-2.006c-.218-.269-.252-.336-.262-.552a1.217,1.217,0,0,0-.525-.916c-.116-.086-.185-.178-.185-.24,0-.283-.456-.725-.981-.965a4.794,4.794,0,0,0-1.151-.312.188.188,0,0,1-.184-.12c-.053-.115-.044-.12.194-.192.141-.038.321-.081.4-.1a5.976,5.976,0,0,0,1.923-.82,1.553,1.553,0,0,0,.724-1,.877.877,0,0,0-.1-.293c-.18-.35-.116-.561.3-.95a1.466,1.466,0,0,0,.549-1.166l0-.346.219-.024a.9.9,0,0,0,.34-.115,1.32,1.32,0,0,0,.379-.725c.024-.149.058-.221.136-.249a2.1,2.1,0,0,0,.758-1.536c0-.211.291-.489.6-.576.282-.077.311-.12.136-.211-.219-.11-.311-.3-.34-.652a1.32,1.32,0,0,1,.34-1.07,1.83,1.83,0,0,0,.1-2.237,1.487,1.487,0,0,1-.194-.782,1.437,1.437,0,0,1,.291-1.1,1.247,1.247,0,0,0,.345-.864,1.277,1.277,0,0,0-.185-.878c-.233-.244-.117-.8.306-1.459a2.676,2.676,0,0,0,.563-1.685,2,2,0,0,0-.364-1.253l-.151-.235.219-.249a6.572,6.572,0,0,0,1.03-1.728,12.476,12.476,0,0,0,.66-2.39,7.532,7.532,0,0,0,.117-1.775c0-1.5-.077-1.867-.442-2.04C117.651,194.349,117.622,194.349,117.486,194.459Zm-14.529,27.61c-.015.038-.029.024-.029-.029s.01-.081.024-.063A.1.1,0,0,1,102.957,222.07Zm-1.02.336c-.015.038-.029.024-.029-.029s.01-.082.025-.063A.1.1,0,0,1,101.937,222.406Z" transform="translate(-79.255 -194.374)"/>
        </g>
      </g>
    </g>
  </g>
</svg>
