<svg id="Icon_settings" xmlns="http://www.w3.org/2000/svg" width="24" height="24" viewBox="0 0 24 24">
  <g id="Icon_settings-2" data-name="Icon_settings" transform="translate(3 3)">
    <path id="Shape" d="M9.563,18H8.438a1.126,1.126,0,0,1-1.125-1.125l-.135-.945a1.124,1.124,0,0,0-1.789-.742l-.763.573a1.126,1.126,0,0,1-1.591,0l-.8-.8a1.127,1.127,0,0,1,0-1.591l.573-.764a1.125,1.125,0,0,0-.742-1.788l-.945-.135A1.126,1.126,0,0,1,0,9.563V8.438A1.126,1.126,0,0,1,1.125,7.313l.945-.135a1.125,1.125,0,0,0,.742-1.789l-.573-.763a1.127,1.127,0,0,1,0-1.591l.8-.8a1.126,1.126,0,0,1,1.591,0l.763.573A1.124,1.124,0,0,0,7.177,2.07l.135-.945A1.126,1.126,0,0,1,8.438,0H9.563a1.126,1.126,0,0,1,1.125,1.125l.135.945a1.123,1.123,0,0,0,1.788.742l.764-.573a1.126,1.126,0,0,1,1.591,0l.8.8a1.127,1.127,0,0,1,0,1.591l-.573.763a1.125,1.125,0,0,0,.742,1.789l.945.135A1.126,1.126,0,0,1,18,8.438V9.563a1.126,1.126,0,0,1-1.125,1.125l-.945.135a1.125,1.125,0,0,0-.742,1.788l.573.764a1.127,1.127,0,0,1,0,1.591l-.8.8a1.126,1.126,0,0,1-1.591,0l-.764-.573a1.123,1.123,0,0,0-1.788.742l-.135.945A1.126,1.126,0,0,1,9.563,18ZM9,6.75A2.25,2.25,0,1,0,11.25,9,2.253,2.253,0,0,0,9,6.75Z"/>
  </g>
</svg>
