<svg xmlns="http://www.w3.org/2000/svg" width="99.606" height="97.995" viewBox="0 0 99.606 97.995">
  <path id="Tracé_2053" data-name="Tracé 2053" d="M49.8,44.1a7.6,7.6,0,0,1-7.47-7.35,7.471,7.471,0,0,1,14.941,0A7.6,7.6,0,0,1,49.8,44.1Zm0-24.5A17.5,17.5,0,0,0,32.372,36.748a17.433,17.433,0,0,0,34.862,0A17.5,17.5,0,0,0,49.8,19.6ZM81.677,72.516C74.7,64.187,57.274,61.247,49.8,61.247s-24.4,2.94-31.874,11.269A38.366,38.366,0,0,1,9.961,49C9.961,27.439,27.89,9.8,49.8,9.8S89.646,27.439,89.646,49A38.366,38.366,0,0,1,81.677,72.516ZM25.4,79.866c1.992-4.41,14.941-8.82,24.4-8.82s22.411,4.41,24.4,8.82c-6.474,5.39-14.941,8.33-24.4,8.33S31.874,85.256,25.4,79.866ZM49.8,0C22.411,0,0,22.049,0,49s22.411,49,49.8,49,49.8-22.049,49.8-49S77.195,0,49.8,0Z"/>
</svg>
